STARTFONT 2.1
COMMENT GFtoPK 2.3 output from METAFONT output 1994.05.19:0936
COMMENT identifier CMSY
COMMENT codingscheme TeX math symbols
COMMENT fontfacebyte
COMMENT Nr: 15335424
COMMENT Checksum 21222c9a
COMMENT 
COMMENT This file is made by pktobdf using the above specified pk file.
COMMENT 
FONT -metafont-cmsy10-medium-r-normal--19-180-75-75-p-104-metafont-fontspecific
SIZE 19 75 75
FONTBOUNDINGBOX 20 33 -1 -18
STARTPROPERTIES 22
FONT_ASCENT 14
FONT_DESCENT 5
DEFAULT_CHAR 65
FOUNDRY "metafont"
FAMILY_NAME "cmsy10"
WEIGHT_NAME "medium"
SLANT "r"
SETWIDTH_NAME "normal"
ADD_STYLE_NAME ""
PIXEL_SIZE 19
POINT_SIZE 180
RESOLUTION_X 75
RESOLUTION_Y 75
SPACING "P"
AVERAGE_WIDTH 104
CHARSET_REGISTRY "Metafont"
CHARSET_ENCODING "FONTSPECIFIC"
AVG_CAPITAL_WIDTH 25
AVG_LOWERCASE_WIDTH 14
COPYRIGHT "Metafont (public domain)"
FULLNAME "cmsy10"
DEVICE_FONT_NAME "cmsy10"
ENDPROPERTIES
CHARS 128
STARTCHAR Gamma
ENCODING 0
SWIDTH 797 0
DWIDTH 15 0
BBX 10 1 2 4
BITMAP
ffc0
ENDCHAR
STARTCHAR Delta
ENCODING 1
SWIDTH 265 0
DWIDTH 5 0
BBX 2 2 1 4
BITMAP
c0
c0
ENDCHAR
STARTCHAR Theta
ENCODING 2
SWIDTH 797 0
DWIDTH 15 0
BBX 8 9 3 0
BITMAP
81
42
24
18
10
18
24
42
81
ENDCHAR
STARTCHAR Lamdba
ENCODING 3
SWIDTH 478 0
DWIDTH 9 0
BBX 6 8 1 1
BITMAP
10
10
94
78
78
94
10
10
ENDCHAR
STARTCHAR Xi
ENCODING 4
SWIDTH 797 0
DWIDTH 15 0
BBX 12 11 1 -1
BITMAP
0600
0600
0000
0000
0000
fff0
0000
0000
0000
0600
0600
ENDCHAR
STARTCHAR Pi
ENCODING 5
SWIDTH 531 0
DWIDTH 10 0
BBX 9 9 0 0
BITMAP
0800
1400
2200
4100
8080
4100
2200
1400
0800
ENDCHAR
STARTCHAR Sigma
ENCODING 6
SWIDTH 797 0
DWIDTH 15 0
BBX 12 13 1 0
BITMAP
0200
0200
0200
0200
0200
0200
fff0
0200
0200
0200
0200
0200
fff0
ENDCHAR
STARTCHAR Upsilon
ENCODING 7
SWIDTH 797 0
DWIDTH 15 0
BBX 12 13 1 -4
BITMAP
fff0
0200
0200
0200
0200
0200
fff0
0200
0200
0200
0200
0200
0200
ENDCHAR
STARTCHAR Phi
ENCODING 8
SWIDTH 797 0
DWIDTH 15 0
BBX 12 13 1 -2
BITMAP
1f80
2240
4220
4220
8210
8210
fff0
8210
8210
4220
4220
2240
1f80
ENDCHAR
STARTCHAR Psi
ENCODING 9
SWIDTH 797 0
DWIDTH 15 0
BBX 12 13 1 -2
BITMAP
1f80
2040
4020
4020
8010
8010
fff0
8010
8010
4020
4020
2040
1f80
ENDCHAR
STARTCHAR Omega
ENCODING 10
SWIDTH 797 0
DWIDTH 15 0
BBX 12 13 1 -2
BITMAP
1f80
2040
6060
50a0
8910
8610
8410
8610
8910
50a0
6060
2040
1f80
ENDCHAR
STARTCHAR arrowup
ENCODING 11
SWIDTH 797 0
DWIDTH 15 0
BBX 12 13 1 -2
BITMAP
1f80
2040
4060
40a0
8110
8210
8410
8410
8810
5020
6020
2040
1f80
ENDCHAR
STARTCHAR arrowdown
ENCODING 12
SWIDTH 797 0
DWIDTH 15 0
BBX 12 13 1 -2
BITMAP
1f80
2040
4020
4020
8010
8610
8610
8610
8010
4020
4020
2040
1f80
ENDCHAR
STARTCHAR quotesingle
ENCODING 13
SWIDTH 1009 0
DWIDTH 19 0
BBX 16 17 1 -4
BITMAP
03c0
0c30
1008
2004
4002
4002
8001
8001
8001
8001
8001
4002
4002
2004
1008
0c30
03c0
ENDCHAR
STARTCHAR exclamdown
ENCODING 14
SWIDTH 478 0
DWIDTH 9 0
BBX 6 7 1 1
BITMAP
30
48
84
84
84
48
30
ENDCHAR
STARTCHAR questiondown
ENCODING 15
SWIDTH 478 0
DWIDTH 9 0
BBX 6 7 1 1
BITMAP
30
78
fc
fc
fc
78
30
ENDCHAR
STARTCHAR dotlessi
ENCODING 16
SWIDTH 797 0
DWIDTH 15 0
BBX 12 11 1 -1
BITMAP
8010
4020
30c0
0f00
0000
0000
0000
0f00
30c0
4020
8010
ENDCHAR
STARTCHAR dotlessj
ENCODING 17
SWIDTH 797 0
DWIDTH 15 0
BBX 12 9 1 0
BITMAP
fff0
0000
0000
0000
fff0
0000
0000
0000
fff0
ENDCHAR
STARTCHAR grave
ENCODING 18
SWIDTH 797 0
DWIDTH 15 0
BBX 10 16 2 -4
BITMAP
1fc0
2000
4000
4000
8000
8000
8000
8000
4000
4000
2000
1fc0
0000
0000
0000
ffc0
ENDCHAR
STARTCHAR acute
ENCODING 19
SWIDTH 797 0
DWIDTH 15 0
BBX 10 16 2 -4
BITMAP
fe00
0100
0080
0080
0040
0040
0040
0040
0080
0080
0100
fe00
0000
0000
0000
ffc0
ENDCHAR
STARTCHAR caron
ENCODING 20
SWIDTH 797 0
DWIDTH 15 0
BBX 10 16 2 -4
BITMAP
0040
0180
0600
0800
3000
c000
c000
3000
0800
0600
0180
0040
0000
0000
0000
ffc0
ENDCHAR
STARTCHAR breve
ENCODING 21
SWIDTH 797 0
DWIDTH 15 0
BBX 10 16 2 -4
BITMAP
8000
6000
1800
0400
0300
00c0
00c0
0300
0400
1800
6000
8000
0000
0000
0000
ffc0
ENDCHAR
STARTCHAR macron
ENCODING 22
SWIDTH 797 0
DWIDTH 15 0
BBX 10 16 2 -4
BITMAP
0040
0040
0040
0080
0100
0e00
f000
0e00
0100
0080
0040
0040
0000
0000
0000
ffc0
ENDCHAR
STARTCHAR ring
ENCODING 23
SWIDTH 797 0
DWIDTH 15 0
BBX 10 16 2 -4
BITMAP
8000
8000
8000
4000
2000
1c00
03c0
1c00
2000
4000
8000
8000
0000
0000
0000
ffc0
ENDCHAR
STARTCHAR cedilla
ENCODING 24
SWIDTH 797 0
DWIDTH 15 0
BBX 12 5 1 2
BITMAP
3810
4410
8410
8220
81c0
ENDCHAR
STARTCHAR germandbls
ENCODING 25
SWIDTH 797 0
DWIDTH 15 0
BBX 12 9 1 0
BITMAP
3810
4410
8220
81c0
0000
3810
4410
8220
81c0
ENDCHAR
STARTCHAR ae
ENCODING 26
SWIDTH 797 0
DWIDTH 15 0
BBX 10 13 2 -2
BITMAP
1fc0
2000
4000
4000
8000
8000
8000
8000
8000
4000
4000
2000
1fc0
ENDCHAR
STARTCHAR oe
ENCODING 27
SWIDTH 797 0
DWIDTH 15 0
BBX 10 13 2 -2
BITMAP
fe00
0100
0080
0080
0040
0040
0040
0040
0040
0080
0080
0100
fe00
ENDCHAR
STARTCHAR oslash
ENCODING 28
SWIDTH 1009 0
DWIDTH 19 0
BBX 16 13 1 -2
BITMAP
0063
018c
0210
0c60
1080
6300
8400
6300
1080
0c60
0210
018c
0063
ENDCHAR
STARTCHAR AE
ENCODING 29
SWIDTH 1009 0
DWIDTH 19 0
BBX 16 13 1 -2
BITMAP
c600
3180
0840
0630
0108
00c6
0021
00c6
0108
0630
0840
3180
c600
ENDCHAR
STARTCHAR OE
ENCODING 30
SWIDTH 797 0
DWIDTH 15 0
BBX 10 12 2 -2
BITMAP
0040
0040
0040
0080
0100
0e00
f000
0e00
0100
0080
0040
0040
ENDCHAR
STARTCHAR Oslash
ENCODING 31
SWIDTH 797 0
DWIDTH 15 0
BBX 10 12 2 -2
BITMAP
8000
8000
8000
4000
2000
1c00
03c0
1c00
2000
4000
8000
8000
ENDCHAR
STARTCHAR tilde
ENCODING 32
SWIDTH 1009 0
DWIDTH 19 0
BBX 16 7 1 1
BITMAP
1000
2000
4000
ffff
4000
2000
1000
ENDCHAR
STARTCHAR exclam
ENCODING 33
SWIDTH 1009 0
DWIDTH 19 0
BBX 16 7 1 1
BITMAP
0008
0004
0002
ffff
0002
0004
0008
ENDCHAR
STARTCHAR quotedblright
ENCODING 34
SWIDTH 478 0
DWIDTH 9 0
BBX 7 17 1 -4
BITMAP
10
38
54
92
10
10
10
10
10
10
10
10
10
10
10
10
10
ENDCHAR
STARTCHAR numbersign
ENCODING 35
SWIDTH 478 0
DWIDTH 9 0
BBX 7 17 1 -4
BITMAP
10
10
10
10
10
10
10
10
10
10
10
10
10
92
54
38
10
ENDCHAR
STARTCHAR dollar
ENCODING 36
SWIDTH 1009 0
DWIDTH 19 0
BBX 16 7 1 1
BITMAP
1008
2004
4002
ffff
4002
2004
1008
ENDCHAR
STARTCHAR percent
ENCODING 37
SWIDTH 1009 0
DWIDTH 19 0
BBX 16 16 1 -3
BITMAP
000f
0003
0005
0009
0010
0020
0040
0080
0100
0200
0400
0800
1000
2000
4000
8000
ENDCHAR
STARTCHAR ampersand
ENCODING 38
SWIDTH 1009 0
DWIDTH 19 0
BBX 16 16 1 -4
BITMAP
8000
4000
2000
1000
0800
0400
0200
0100
0080
0040
0020
0010
0009
0005
0003
000f
ENDCHAR
STARTCHAR quoteright
ENCODING 39
SWIDTH 797 0
DWIDTH 15 0
BBX 12 9 1 0
BITMAP
3810
4410
8410
8220
81c0
0000
0000
0000
fff0
ENDCHAR
STARTCHAR parenleft
ENCODING 40
SWIDTH 1009 0
DWIDTH 19 0
BBX 15 11 2 -1
BITMAP
0400
0800
1000
3ffe
c000
c000
2000
1ffe
1800
0800
0400
ENDCHAR
STARTCHAR parenright
ENCODING 41
SWIDTH 1009 0
DWIDTH 19 0
BBX 15 11 1 -1
BITMAP
0040
0020
0010
fff8
0006
0006
0008
fff0
0030
0020
0040
ENDCHAR
STARTCHAR asterisk
ENCODING 42
SWIDTH 584 0
DWIDTH 11 0
BBX 10 16 0 -4
BITMAP
0c00
0c00
1200
2100
e1c0
2100
2100
2100
2100
2100
2100
2100
2100
2100
2100
2100
ENDCHAR
STARTCHAR plus
ENCODING 43
SWIDTH 584 0
DWIDTH 11 0
BBX 10 16 0 -3
BITMAP
2100
2100
2100
2100
2100
2100
2100
2100
2100
2100
2100
e1c0
2100
1200
0c00
0c00
ENDCHAR
STARTCHAR comma
ENCODING 44
SWIDTH 1009 0
DWIDTH 19 0
BBX 14 11 2 -1
BITMAP
0840
1020
3030
7ff8
c00c
8004
4008
3ff0
1020
1020
0840
ENDCHAR
STARTCHAR hyphen
ENCODING 45
SWIDTH 1009 0
DWIDTH 19 0
BBX 16 16 1 -3
BITMAP
f000
c000
a000
9000
0800
0400
0200
0100
0080
0040
0020
0010
0008
0004
0002
0001
ENDCHAR
STARTCHAR period
ENCODING 46
SWIDTH 1009 0
DWIDTH 19 0
BBX 16 16 1 -4
BITMAP
0001
0002
0004
0008
0010
0020
0040
0080
0100
0200
0400
0800
9000
a000
c000
f000
ENDCHAR
STARTCHAR slash
ENCODING 47
SWIDTH 797 0
DWIDTH 15 0
BBX 12 8 1 0
BITMAP
3830
4440
8280
8100
8100
8280
4440
3830
ENDCHAR
STARTCHAR 0
ENCODING 48
SWIDTH 265 0
DWIDTH 5 0
BBX 3 9 1 1
BITMAP
60
60
60
40
40
c0
c0
80
80
ENDCHAR
STARTCHAR 1
ENCODING 49
SWIDTH 1009 0
DWIDTH 19 0
BBX 16 8 1 0
BITMAP
381c
4462
8281
8181
8181
8141
4622
381c
ENDCHAR
STARTCHAR 2
ENCODING 50
SWIDTH 637 0
DWIDTH 12 0
BBX 7 13 2 -2
BITMAP
1e
20
40
40
80
80
fe
80
80
40
40
20
1e
ENDCHAR
STARTCHAR 3
ENCODING 51
SWIDTH 637 0
DWIDTH 12 0
BBX 7 13 2 -2
BITMAP
f0
08
04
04
02
02
fe
02
02
04
04
08
f0
ENDCHAR
STARTCHAR 4
ENCODING 52
SWIDTH 956 0
DWIDTH 18 0
BBX 15 13 1 0
BITMAP
0100
0280
0280
0440
0440
0820
1010
1010
2008
2008
4004
4004
fffe
ENDCHAR
STARTCHAR 5
ENCODING 53
SWIDTH 956 0
DWIDTH 18 0
BBX 15 13 1 -4
BITMAP
fffe
4004
4004
2008
2008
1010
1010
0820
0440
0440
0280
0280
0100
ENDCHAR
STARTCHAR 6
ENCODING 54
SWIDTH 0 0
DWIDTH 0 0
BBX 8 17 3 -4
BITMAP
01
01
02
02
04
04
08
08
10
10
10
20
20
40
40
80
80
ENDCHAR
STARTCHAR 7
ENCODING 55
SWIDTH 0 0
DWIDTH 0 0
BBX 2 7 1 1
BITMAP
80
80
80
c0
80
80
80
ENDCHAR
STARTCHAR 8
ENCODING 56
SWIDTH 531 0
DWIDTH 10 0
BBX 9 13 0 0
BITMAP
8080
8080
4100
4100
7f00
2200
2200
2200
1400
1400
1400
0800
0800
ENDCHAR
STARTCHAR 9
ENCODING 57
SWIDTH 531 0
DWIDTH 10 0
BBX 7 13 1 0
BITMAP
fe
02
02
02
02
02
fe
02
02
02
02
02
fe
ENDCHAR
STARTCHAR colon
ENCODING 58
SWIDTH 637 0
DWIDTH 12 0
BBX 9 5 1 2
BITMAP
ff80
0080
0080
0080
0080
ENDCHAR
STARTCHAR semicolon
ENCODING 59
SWIDTH 478 0
DWIDTH 9 0
BBX 6 15 1 -1
BITMAP
08
38
48
94
94
94
94
a4
a4
a4
a4
a4
48
70
40
ENDCHAR
STARTCHAR less
ENCODING 60
SWIDTH 690 0
DWIDTH 13 0
BBX 11 13 1 0
BITMAP
6300
9780
99c0
58c0
3860
3cc0
bf00
df00
1b00
1b00
9b00
9b60
7180
ENDCHAR
STARTCHAR equal
ENCODING 61
SWIDTH 690 0
DWIDTH 13 0
BBX 10 13 1 0
BITMAP
3800
4c00
8640
8380
8000
4380
3e40
0640
0300
e180
3180
1980
0f00
ENDCHAR
STARTCHAR greater
ENCODING 62
SWIDTH 850 0
DWIDTH 16 0
BBX 13 13 1 0
BITMAP
fff8
0200
0200
0200
0200
0200
0200
0200
0200
0200
0200
0200
0200
ENDCHAR
STARTCHAR question
ENCODING 63
SWIDTH 850 0
DWIDTH 16 0
BBX 13 13 1 0
BITMAP
0200
0200
0200
0200
0200
0200
0200
0200
0200
0200
0200
0200
fff8
ENDCHAR
STARTCHAR at
ENCODING 64
SWIDTH 584 0
DWIDTH 11 0
BBX 8 13 1 0
BITMAP
84
86
c2
63
23
32
5c
4c
44
46
63
61
e1
ENDCHAR
STARTCHAR A
ENCODING 65
SWIDTH 797 0
DWIDTH 15 0
BBX 13 15 0 -1
BITMAP
0010
0030
0070
0070
00b0
00b0
0130
0330
0230
0430
0ff0
8830
9030
f038
6000
ENDCHAR
STARTCHAR B
ENCODING 66
SWIDTH 637 0
DWIDTH 12 0
BBX 11 13 1 0
BITMAP
1be0
3c60
1c60
1840
1880
3700
33c0
30c0
30c0
20c0
6080
5900
de00
ENDCHAR
STARTCHAR C
ENCODING 67
SWIDTH 531 0
DWIDTH 10 0
BBX 9 13 0 0
BITMAP
0780
0980
1180
2100
6000
4000
c000
c000
c000
c000
c100
e200
7c00
ENDCHAR
STARTCHAR D
ENCODING 68
SWIDTH 743 0
DWIDTH 14 0
BBX 14 13 0 0
BITMAP
1ff0
2638
461c
860c
040c
0c0c
0c0c
0c08
0810
1820
1840
1180
3e00
ENDCHAR
STARTCHAR E
ENCODING 69
SWIDTH 531 0
DWIDTH 10 0
BBX 9 13 1 0
BITMAP
0780
0980
1100
3000
3800
1c00
3000
6000
4000
c000
c200
e400
7800
ENDCHAR
STARTCHAR F
ENCODING 70
SWIDTH 690 0
DWIDTH 13 0
BBX 14 13 1 0
BITMAP
07fc
1908
3300
2300
0200
0600
07e0
0400
0c00
0800
1800
d000
e000
ENDCHAR
STARTCHAR G
ENCODING 71
SWIDTH 584 0
DWIDTH 11 0
BBX 9 15 1 -2
BITMAP
0f80
1180
2180
6100
6000
4000
c180
c300
c300
c300
e600
7e00
0400
4800
f000
ENDCHAR
STARTCHAR H
ENCODING 72
SWIDTH 850 0
DWIDTH 16 0
BBX 14 13 0 0
BITMAP
1e04
260c
4608
8618
0410
0ff0
0c30
0c20
0860
1860
1860
1064
3078
ENDCHAR
STARTCHAR I
ENCODING 73
SWIDTH 531 0
DWIDTH 10 0
BBX 11 13 0 0
BITMAP
1fe0
2300
4200
0600
0600
0400
0c00
0c00
0800
1800
1800
1100
fe00
ENDCHAR
STARTCHAR J
ENCODING 74
SWIDTH 690 0
DWIDTH 13 0
BBX 14 15 1 -2
BITMAP
01fc
0210
0420
0c60
0840
00c0
00c0
00c0
0080
0180
2180
4100
e300
6600
7800
ENDCHAR
STARTCHAR K
ENCODING 75
SWIDTH 743 0
DWIDTH 14 0
BBX 13 13 1 0
BITMAP
1830
38c8
1b00
1c00
1800
1800
3800
3400
2400
6400
6208
4110
c0e0
ENDCHAR
STARTCHAR L
ENCODING 76
SWIDTH 690 0
DWIDTH 13 0
BBX 10 13 1 0
BITMAP
03c0
04c0
0cc0
0800
1800
1800
1800
1000
3000
3000
2040
7cc0
cf80
ENDCHAR
STARTCHAR M
ENCODING 77
SWIDTH 1169 0
DWIDTH 22 0
BBX 19 14 0 -1
BITMAP
030020
030060
030060
0700e0
0781c0
0583c0
0586c0
098cc0
0998c0
09d0c0
10e0c0
90e0c0
e000e0
600000
ENDCHAR
STARTCHAR N
ENCODING 78
SWIDTH 797 0
DWIDTH 15 0
BBX 18 16 -1 -1
BITMAP
0001c0
000380
030600
070400
070400
070800
070800
078800
058800
099000
099000
09d000
10e000
90e000
f0e000
600000
ENDCHAR
STARTCHAR O
ENCODING 79
SWIDTH 797 0
DWIDTH 15 0
BBX 12 13 2 0
BITMAP
09e0
1270
2430
6c30
4830
c030
c030
c020
c060
c040
e080
7100
3e00
ENDCHAR
STARTCHAR P
ENCODING 80
SWIDTH 690 0
DWIDTH 13 0
BBX 12 14 0 -1
BITMAP
1fe0
2670
4630
8630
0430
0c20
0c40
0c80
0f00
1800
1800
1000
3000
2000
ENDCHAR
STARTCHAR Q
ENCODING 81
SWIDTH 797 0
DWIDTH 15 0
BBX 11 15 3 -2
BITMAP
07c0
18c0
30e0
2060
4060
c060
c060
c040
c080
e580
7900
0600
f820
3c40
0f80
ENDCHAR
STARTCHAR R
ENCODING 82
SWIDTH 850 0
DWIDTH 16 0
BBX 14 13 0 0
BITMAP
1ff0
2638
4618
8618
0410
0c20
0c40
0f80
0980
19c0
18c0
10ec
3070
ENDCHAR
STARTCHAR S
ENCODING 83
SWIDTH 584 0
DWIDTH 11 0
BBX 10 13 1 0
BITMAP
03c0
0cc0
18c0
1800
1c00
0e00
0700
0380
4180
c180
c100
e200
7c00
ENDCHAR
STARTCHAR T
ENCODING 84
SWIDTH 531 0
DWIDTH 10 0
BBX 13 14 1 0
BITMAP
0008
3ff0
4300
c300
8200
0600
0600
0600
0400
0c00
0c00
0800
1000
7c00
ENDCHAR
STARTCHAR U
ENCODING 85
SWIDTH 637 0
DWIDTH 12 0
BBX 12 13 -1 0
BITMAP
3810
5830
1820
1060
3060
20c0
60c0
61c0
4180
c380
c580
c980
f1c0
ENDCHAR
STARTCHAR V
ENCODING 86
SWIDTH 584 0
DWIDTH 11 0
BBX 10 14 1 -1
BITMAP
c080
e0c0
7040
3040
3040
3080
3180
3100
3200
3600
3c00
3800
3000
2000
ENDCHAR
STARTCHAR W
ENCODING 87
SWIDTH 956 0
DWIDTH 18 0
BBX 17 14 1 -1
BITMAP
e06100
606180
70e080
30f080
313080
333100
323100
343200
3c3200
383400
303c00
701800
601000
400000
ENDCHAR
STARTCHAR X
ENCODING 88
SWIDTH 690 0
DWIDTH 13 0
BBX 14 13 1 0
BITMAP
070c
0b0c
0308
0390
01e0
0180
0380
0580
1980
2180
4180
c1a0
e1c0
ENDCHAR
STARTCHAR Y
ENCODING 89
SWIDTH 637 0
DWIDTH 12 0
BBX 12 15 1 -2
BITMAP
3860
5c10
0c10
0e10
0620
0620
0640
0640
0680
0700
0700
0600
8400
9800
6000
ENDCHAR
STARTCHAR Z
ENCODING 90
SWIDTH 743 0
DWIDTH 14 0
BBX 12 13 2 0
BITMAP
0f90
11e0
3040
0080
0180
0f00
0280
0400
0800
1020
2040
7cc0
8f80
ENDCHAR
STARTCHAR bracketleft
ENCODING 91
SWIDTH 637 0
DWIDTH 12 0
BBX 9 11 1 0
BITMAP
8080
8080
8080
8080
8080
8080
8080
8080
8080
4100
3e00
ENDCHAR
STARTCHAR leftdblquote
ENCODING 92
SWIDTH 637 0
DWIDTH 12 0
BBX 9 11 1 0
BITMAP
3e00
4100
8080
8080
8080
8080
8080
8080
8080
8080
8080
ENDCHAR
STARTCHAR bracketright
ENCODING 93
SWIDTH 637 0
DWIDTH 12 0
BBX 9 11 1 0
BITMAP
8080
8080
8080
8880
8880
be80
8880
8880
8080
4100
3e00
ENDCHAR
STARTCHAR circumflex
ENCODING 94
SWIDTH 637 0
DWIDTH 12 0
BBX 9 11 1 0
BITMAP
0800
0800
1400
1400
2200
2200
2200
4100
4100
8080
8080
ENDCHAR
STARTCHAR dotaccent
ENCODING 95
SWIDTH 637 0
DWIDTH 12 0
BBX 9 11 1 0
BITMAP
8080
8080
4100
4100
2200
2200
2200
1400
1400
0800
0800
ENDCHAR
STARTCHAR leftquote
ENCODING 96
SWIDTH 584 0
DWIDTH 11 0
BBX 8 13 1 0
BITMAP
80
80
80
80
80
80
ff
80
80
80
80
80
80
ENDCHAR
STARTCHAR a
ENCODING 97
SWIDTH 584 0
DWIDTH 11 0
BBX 8 13 1 0
BITMAP
01
01
01
01
01
01
ff
01
01
01
01
01
01
ENDCHAR
STARTCHAR b
ENCODING 98
SWIDTH 425 0
DWIDTH 8 0
BBX 5 19 3 -5
BITMAP
80
80
80
80
80
80
80
80
80
80
80
80
80
80
80
80
80
80
f8
ENDCHAR
STARTCHAR c
ENCODING 99
SWIDTH 425 0
DWIDTH 8 0
BBX 5 19 -1 -5
BITMAP
08
08
08
08
08
08
08
08
08
08
08
08
08
08
08
08
08
08
f8
ENDCHAR
STARTCHAR d
ENCODING 100
SWIDTH 425 0
DWIDTH 8 0
BBX 5 19 3 -5
BITMAP
f8
80
80
80
80
80
80
80
80
80
80
80
80
80
80
80
80
80
80
ENDCHAR
STARTCHAR e
ENCODING 101
SWIDTH 425 0
DWIDTH 8 0
BBX 5 19 -1 -5
BITMAP
f8
08
08
08
08
08
08
08
08
08
08
08
08
08
08
08
08
08
08
ENDCHAR
STARTCHAR f
ENCODING 102
SWIDTH 478 0
DWIDTH 9 0
BBX 6 19 1 -5
BITMAP
0c
10
10
10
10
10
10
10
30
c0
30
10
10
10
10
10
10
10
0c
ENDCHAR
STARTCHAR g
ENCODING 103
SWIDTH 478 0
DWIDTH 9 0
BBX 6 19 1 -5
BITMAP
c0
30
10
10
10
10
10
10
10
0c
10
10
10
10
10
10
10
30
c0
ENDCHAR
STARTCHAR h
ENCODING 104
SWIDTH 371 0
DWIDTH 7 0
BBX 4 19 1 -5
BITMAP
10
10
20
20
20
40
40
40
80
80
80
40
40
40
20
20
20
10
10
ENDCHAR
STARTCHAR i
ENCODING 105
SWIDTH 371 0
DWIDTH 7 0
BBX 4 19 1 -5
BITMAP
80
80
40
40
40
20
20
20
10
10
10
20
20
20
40
40
40
80
80
ENDCHAR
STARTCHAR j
ENCODING 106
SWIDTH 265 0
DWIDTH 5 0
BBX 1 19 2 -5
BITMAP
80
80
80
80
80
80
80
80
80
80
80
80
80
80
80
80
80
80
80
ENDCHAR
STARTCHAR k
ENCODING 107
SWIDTH 478 0
DWIDTH 9 0
BBX 6 19 1 -5
BITMAP
84
84
84
84
84
84
84
84
84
84
84
84
84
84
84
84
84
84
84
ENDCHAR
STARTCHAR l
ENCODING 108
SWIDTH 478 0
DWIDTH 9 0
BBX 7 19 1 -5
BITMAP
10
38
54
92
10
10
10
10
10
10
10
10
10
10
10
92
54
38
10
ENDCHAR
STARTCHAR m
ENCODING 109
SWIDTH 584 0
DWIDTH 11 0
BBX 10 17 0 -4
BITMAP
0c00
1200
2100
e1c0
2100
2100
2100
2100
2100
2100
2100
2100
2100
e1c0
2100
1200
0c00
ENDCHAR
STARTCHAR n
ENCODING 110
SWIDTH 478 0
DWIDTH 9 0
BBX 6 19 1 -5
BITMAP
80
80
40
40
40
40
20
20
20
20
10
10
10
08
08
08
08
04
04
ENDCHAR
STARTCHAR o
ENCODING 111
SWIDTH 265 0
DWIDTH 5 0
BBX 2 13 1 -2
BITMAP
80
40
40
40
40
40
40
80
80
80
80
80
40
ENDCHAR
STARTCHAR p
ENCODING 112
SWIDTH 850 0
DWIDTH 16 0
BBX 14 19 2 -18
BITMAP
0004
0004
0008
0008
0010
0010
0020
0020
0040
0040
8080
4080
4100
2100
2200
1200
1400
1400
0800
ENDCHAR
STARTCHAR q
ENCODING 113
SWIDTH 743 0
DWIDTH 14 0
BBX 13 13 0 0
BITMAP
f8f8
3060
3060
3060
3060
3060
3060
3060
3060
3060
3060
3060
fff8
ENDCHAR
STARTCHAR r
ENCODING 114
SWIDTH 850 0
DWIDTH 16 0
BBX 13 13 1 0
BITMAP
fff8
fff8
6010
7030
3020
3820
1840
1c40
0c80
0c80
0700
0700
0200
ENDCHAR
STARTCHAR s
ENCODING 115
SWIDTH 425 0
DWIDTH 8 0
BBX 7 17 1 -4
BITMAP
04
0a
08
08
08
10
10
10
10
10
10
10
20
20
20
a0
40
ENDCHAR
STARTCHAR t
ENCODING 116
SWIDTH 637 0
DWIDTH 12 0
BBX 9 11 1 0
BITMAP
8080
8080
8080
8080
8080
8080
8080
8080
8080
8080
ff80
ENDCHAR
STARTCHAR u
ENCODING 117
SWIDTH 637 0
DWIDTH 12 0
BBX 9 11 1 0
BITMAP
ff80
8080
8080
8080
8080
8080
8080
8080
8080
8080
8080
ENDCHAR
STARTCHAR v
ENCODING 118
SWIDTH 797 0
DWIDTH 15 0
BBX 11 16 2 -4
BITMAP
ffe0
8000
8000
8000
8000
8000
8000
8000
8000
8000
8000
ffe0
0000
0000
0000
ffc0
ENDCHAR
STARTCHAR w
ENCODING 119
SWIDTH 797 0
DWIDTH 15 0
BBX 11 16 1 -4
BITMAP
ffe0
0020
0020
0020
0020
0020
0020
0020
0020
0020
0020
7fe0
0000
0000
0000
7fe0
ENDCHAR
STARTCHAR x
ENCODING 120
SWIDTH 425 0
DWIDTH 8 0
BBX 5 17 1 -4
BITMAP
60
90
90
80
80
60
50
88
88
88
50
30
08
08
48
48
30
ENDCHAR
STARTCHAR y
ENCODING 121
SWIDTH 425 0
DWIDTH 8 0
BBX 5 17 1 -4
BITMAP
20
20
20
20
20
f8
20
20
20
20
20
20
20
20
20
20
20
ENDCHAR
STARTCHAR z
ENCODING 122
SWIDTH 425 0
DWIDTH 8 0
BBX 5 17 1 -4
BITMAP
20
20
20
f8
20
20
20
20
00
20
20
20
78
f8
20
20
20
ENDCHAR
STARTCHAR endash
ENCODING 123
SWIDTH 584 0
DWIDTH 11 0
BBX 8 17 1 -4
BITMAP
7f
e4
e4
e4
e4
e4
e4
e4
64
24
24
24
24
24
24
24
24
ENDCHAR
STARTCHAR emdash
ENCODING 124
SWIDTH 850 0
DWIDTH 16 0
BBX 13 15 1 -2
BITMAP
0700
0f80
1fc0
1fc0
1fc0
0f80
7ff0
fff8
fff8
fff8
fff8
7af0
3260
0200
0700
ENDCHAR
STARTCHAR quotedbl
ENCODING 125
SWIDTH 850 0
DWIDTH 16 0
BBX 13 15 1 -2
BITMAP
0200
0500
0500
0880
1040
2020
4010
8008
4010
2020
1040
0880
0500
0500
0200
ENDCHAR
STARTCHAR hungarumlaut
ENCODING 126
SWIDTH 850 0
DWIDTH 16 0
BBX 13 13 1 0
BITMAP
38e0
4510
8208
8008
8008
8008
4010
2020
2020
18c0
0500
0500
0200
ENDCHAR
STARTCHAR dieresis
ENCODING 127
SWIDTH 850 0
DWIDTH 16 0
BBX 13 15 1 -2
BITMAP
0200
0200
0700
0f80
1fc0
3fe0
7ff0
fff8
fff8
fff8
fff8
faf8
7270
0200
0700
ENDCHAR
ENDFONT
